<?xml version="1.0" encoding="utf-8"?>
<!-- Generator: Adobe Illustrator 23.0.1, SVG Export Plug-In . SVG Version: 6.00 Build 0)  -->
<svg version="1.1" id="Layer_1" xmlns="http://www.w3.org/2000/svg" xmlns:xlink="http://www.w3.org/1999/xlink" x="0px" y="0px"
	 viewBox="0 0 300 300" style="enable-background:new 0 0 300 300;" xml:space="preserve">
<style type="text/css">
	.st0{fill:#010101;}
	.st1{fill:#FFFFFF;}
</style>
<path class="st0" d="M281.6,197.1H19.1c-2.9,0-5.2-2.3-5.2-5.2v-80.4c0-2.9,2.3-5.2,5.2-5.2h262.5c2.9,0,5.2,2.3,5.2,5.2v80.4
	C286.8,194.7,284.5,197.1,281.6,197.1z"/>
<path class="st1" d="M201.9,120c0,3.1-2.5,5.6-5.7,5.6c-3.1,0-5.7-2.5-5.7-5.6c0-3.1,2.5-5.6,5.7-5.6
	C199.4,114.4,201.9,116.9,201.9,120z"/>
<polygon class="st1" points="214.1,159.5 214.1,161.2 222.9,161.2 222.9,187 226.2,187 226.2,161.1 242.4,161.1 242.4,159.5 "/>
<polygon class="st1" points="244.7,186.9 244.7,169.5 264.3,169.5 264.3,141.3 266.6,141.3 266.6,187 264.3,187 264.3,172.8 
	247.9,172.8 247.9,187 "/>
<path class="st1" d="M252.5,158.6c0-1.3,0-3.3,0-3.3s6.4-7.4,8.6-10.1c2.1-2.9-2.1-8.4-7.2-4.6c0,0-2,2-2.3,2.1
	c-1.2-6.6,11.8-9,11.8-0.6c0,8.4-0.5,18.1-0.5,18.1C262.7,159.1,259.7,156.6,252.5,158.6z"/>
<path class="st1" d="M260.6,129.9c0.7,3-0.9,5.9-3.6,6.5c-2.7,0.6-5.5-1.3-6.3-4.3c-0.7-3,0.9-5.9,3.6-6.5
	C257,124.9,259.8,126.9,260.6,129.9z"/>
<path class="st1" d="M259.3,145.4c2.9-3.2-1.9-7.3-5.4-3.3c-5.1,6.3-7.7,9.4-7.7,9.4s-9.6,2.3-11.6,2.7c-2,0.4-2.9,5.2,0.8,4.8
	c5.8-0.8,12.4-1.8,12.4-1.8s1,0.1,2.8-1.8C252.4,153.5,259.3,145.4,259.3,145.4z"/>
<path class="st1" d="M243.6,168.5c0,0-4.7,13.3-5.8,16.1c-1.1,2.9-6.1,2.4-5.4-1.8c1.5-5.6,4.7-17.5,4.7-17.5s0.5-3.3,5.3-4
	c4.8-0.7,3.7-0.6,13.2-2.1c9.5-1.5,8.8,7.8,2.9,8.4C248.2,168.3,243.6,168.5,243.6,168.5z"/>
<path class="st1" d="M201.2,126.8c0,0-5.9,0-11.5,0c-5.6,0-7,3.7-7,7.7c0,4,0,14.1,0,16.9c-2.7,0-2.8,1.9-2.8,1.9v2.3h-3.6v18.6
	l12.6-0.1v5.8c0.2,4.1,6.5,3.8,6.6,0c0-2.9,0-24.9,0-24.9h1.6c0,0,0,19.4,0,24.8c0,4.5,6.4,3.9,6.4,0c0-3.9,0-43,0-43h1.1
	c0,0,0,9.3,0,14.4c0.1,4.1,5.3,3.5,5.3,0c0-3.5,0-4.1,0-14.7C209.9,126.1,201.2,126.8,201.2,126.8z M186.4,155.3h-4.7
	c0,0,0-0.6,0-1.5c0-0.8,0.7-0.8,0.7-0.8s0.5,0,1.5,0c0.5,1.1,2.6,0.4,2.6,0.4V155.3z M189.2,155.2h-0.8c0,0,0.3-2.9-0.3-2.9
	c0-1.4,0-15.5,0-15.5h1.1V155.2z"/>
<path class="st1" d="M24.1,128v-3.6H40v3.6h-5.8v15.8h-4.2V128H24.1z"/>
<path class="st1" d="M45.6,124.4v7.3h0.1c0.5-0.8,1.1-1.4,1.9-1.8c0.8-0.4,1.5-0.6,2.2-0.6c1,0,1.9,0.1,2.5,0.4
	c0.7,0.3,1.2,0.7,1.6,1.2c0.4,0.5,0.6,1.1,0.8,1.8c0.2,0.7,0.2,1.5,0.2,2.4v8.6h-3.8v-7.9c0-1.2-0.2-2-0.5-2.6
	c-0.4-0.6-1-0.9-1.9-0.9c-1,0-1.8,0.3-2.3,0.9c-0.5,0.6-0.7,1.6-0.7,3.1v7.3h-3.8v-19.3H45.6z"/>
<path class="st1" d="M61.9,140.3c0.6,0.6,1.4,0.8,2.5,0.8c0.8,0,1.4-0.2,2-0.6c0.6-0.4,0.9-0.8,1-1.2h3.4c-0.5,1.7-1.4,2.9-2.5,3.6
	c-1.1,0.7-2.5,1.1-4.1,1.1c-1.1,0-2.1-0.2-3-0.5c-0.9-0.4-1.6-0.9-2.2-1.5c-0.6-0.6-1.1-1.4-1.4-2.3c-0.3-0.9-0.5-1.9-0.5-3
	c0-1,0.2-2,0.5-2.9c0.3-0.9,0.8-1.7,1.5-2.3c0.6-0.7,1.4-1.2,2.3-1.6c0.9-0.4,1.8-0.6,2.9-0.6c1.2,0,2.2,0.2,3.1,0.7
	c0.9,0.5,1.6,1.1,2.2,1.9c0.6,0.8,1,1.7,1.2,2.7c0.3,1,0.3,2,0.3,3.1H61C61.1,138.9,61.4,139.8,61.9,140.3z M66.3,133
	c-0.5-0.5-1.2-0.8-2.1-0.8c-0.6,0-1.1,0.1-1.5,0.3c-0.4,0.2-0.7,0.5-1,0.8c-0.2,0.3-0.4,0.6-0.5,1c-0.1,0.3-0.2,0.6-0.2,0.9h6.3
	C67.1,134.2,66.8,133.5,66.3,133z"/>
<path class="st1" d="M27.4,160.3c0.6-1.7,1.4-3.1,2.4-4.4c1.1-1.2,2.3-2.2,3.9-2.9c1.5-0.7,3.3-1.1,5.2-1.1c1.9,0,3.7,0.4,5.2,1.1
	c1.5,0.7,2.8,1.7,3.9,2.9c1.1,1.2,1.9,2.7,2.4,4.4c0.6,1.7,0.8,3.5,0.8,5.4c0,1.9-0.3,3.7-0.8,5.3c-0.6,1.6-1.4,3.1-2.4,4.3
	c-1.1,1.2-2.3,2.2-3.9,2.9c-1.5,0.7-3.2,1-5.2,1c-1.9,0-3.6-0.3-5.2-1c-1.5-0.7-2.8-1.7-3.9-2.9c-1.1-1.2-1.9-2.7-2.4-4.3
	c-0.6-1.6-0.8-3.4-0.8-5.3C26.6,163.7,26.8,161.9,27.4,160.3z M32.4,168.9c0.2,1,0.6,2,1.2,2.8c0.5,0.8,1.2,1.5,2.1,2
	c0.9,0.5,1.9,0.8,3.2,0.8c1.2,0,2.3-0.3,3.2-0.8c0.9-0.5,1.6-1.2,2.1-2c0.5-0.8,0.9-1.8,1.2-2.8c0.2-1,0.4-2.1,0.4-3.2
	c0-1.1-0.1-2.3-0.4-3.3c-0.2-1.1-0.6-2-1.2-2.9c-0.5-0.8-1.2-1.5-2.1-2c-0.9-0.5-1.9-0.8-3.2-0.8c-1.2,0-2.3,0.3-3.2,0.8
	c-0.9,0.5-1.6,1.2-2.1,2c-0.5,0.8-0.9,1.8-1.2,2.9c-0.2,1.1-0.4,2.2-0.4,3.3C32.1,166.8,32.2,167.9,32.4,168.9z"/>
<path class="st1" d="M52.1,163.1v-3.5h3.2v-1.5c0-1.7,0.5-3.1,1.6-4.2c1.1-1.1,2.7-1.6,4.9-1.6c0.5,0,1,0,1.4,0.1
	c0.5,0,0.9,0.1,1.4,0.1v3.9c-0.6-0.1-1.3-0.1-2-0.1c-0.7,0-1.3,0.2-1.6,0.5c-0.3,0.3-0.5,0.9-0.5,1.7v1.1h3.7v3.5h-3.7v15.6h-5.4
	v-15.6H52.1z"/>
<path class="st1" d="M64.2,163.1v-3.5h3.2v-1.5c0-1.7,0.5-3.1,1.6-4.2c1.1-1.1,2.7-1.6,4.9-1.6c0.5,0,1,0,1.4,0.1
	c0.5,0,0.9,0.1,1.4,0.1v3.9c-0.6-0.1-1.3-0.1-2-0.1c-0.7,0-1.3,0.2-1.6,0.5c-0.3,0.3-0.5,0.9-0.5,1.7v1.1h3.7v3.5h-3.7v15.6h-5.4
	v-15.6H64.2z"/>
<path class="st1" d="M79.2,156.7v-4.3h5.4v4.3H79.2z M84.5,159.6v19.1h-5.4v-19.1H84.5z"/>
<path class="st1" d="M96,163.1c-0.8,0-1.5,0.2-2,0.6c-0.5,0.4-1,0.9-1.3,1.5c-0.3,0.6-0.6,1.3-0.7,2c-0.1,0.7-0.2,1.4-0.2,2.2
	c0,0.7,0.1,1.4,0.2,2.1c0.1,0.7,0.4,1.4,0.7,1.9c0.3,0.6,0.7,1.1,1.3,1.4c0.5,0.4,1.2,0.6,2,0.6c1.2,0,2.1-0.4,2.8-1.1
	c0.6-0.7,1-1.6,1.2-2.8h4.8c-0.3,2.5-1.3,4.5-2.8,5.8c-1.5,1.3-3.5,2-5.9,2c-1.4,0-2.6-0.2-3.7-0.7c-1.1-0.5-2.1-1.2-2.9-2
	c-0.8-0.9-1.4-1.9-1.9-3.1c-0.4-1.2-0.7-2.5-0.7-3.9c0-1.5,0.2-2.8,0.6-4.1c0.4-1.3,1-2.4,1.8-3.3c0.8-0.9,1.8-1.6,2.9-2.2
	c1.1-0.5,2.5-0.8,3.9-0.8c1.1,0,2.1,0.1,3.1,0.4c1,0.3,1.9,0.7,2.7,1.3c0.8,0.6,1.4,1.4,1.9,2.3c0.5,0.9,0.8,2,0.8,3.2h-4.9
	C99.4,164.2,98.1,163.1,96,163.1z"/>
<path class="st1" d="M113.4,174.1c0.7,0.8,1.8,1.1,3.2,1.1c1,0,1.9-0.3,2.6-0.8c0.7-0.5,1.2-1.1,1.3-1.7h4.4
	c-0.7,2.3-1.8,3.9-3.2,4.9c-1.4,1-3.2,1.5-5.2,1.5c-1.4,0-2.7-0.2-3.8-0.7c-1.1-0.5-2.1-1.2-2.9-2c-0.8-0.9-1.4-1.9-1.8-3.2
	c-0.4-1.2-0.6-2.6-0.6-4.1c0-1.4,0.2-2.8,0.7-4c0.4-1.2,1.1-2.3,1.9-3.2c0.8-0.9,1.8-1.6,2.9-2.1c1.1-0.5,2.4-0.8,3.8-0.8
	c1.5,0,2.9,0.3,4,0.9c1.1,0.6,2.1,1.5,2.8,2.5c0.7,1.1,1.3,2.3,1.6,3.6c0.3,1.4,0.4,2.8,0.3,4.2h-13
	C112.3,172.1,112.7,173.4,113.4,174.1z M119,164.1c-0.6-0.7-1.5-1-2.7-1c-0.8,0-1.5,0.1-2,0.4c-0.5,0.3-0.9,0.6-1.3,1.1
	c-0.3,0.4-0.5,0.9-0.7,1.3c-0.1,0.5-0.2,0.9-0.2,1.3h8.1C120.1,165.8,119.6,164.8,119,164.1z"/>
<path class="st1" d="M277.2,110.3c3.4,0,6.1,2.7,6.1,6.1v69.3c0,3.4-2.7,6.1-6.1,6.1H164.7c-3.4,0-6.1-2.7-6.1-6.1v-69.3
	c0-3.4,2.7-6.1,6.1-6.1H277.2 M277.2,109.3H164.7c-3.9,0-7.1,3.2-7.1,7.2v69.3c0,4,3.2,7.2,7.1,7.2h112.5c3.9,0,7.1-3.2,7.1-7.2
	v-69.3C284.3,112.5,281.1,109.3,277.2,109.3L277.2,109.3z"/>
</svg>
